Coordinates
version=1
nRows=8
nColumns=40
inDegrees=yes

Units are S.I. units (second, meters, Newtons, ...)
Angles are in degrees.

endheader
time	pelvis_tilt	pelvis_list	pelvis_rotation	pelvis_tx	pelvis_ty	pelvis_tz	hip_flexion_r	hip_adduction_r	hip_rotation_r	knee_angle_r	knee_angle_r_beta	ankle_angle_r	subtalar_angle_r	mtp_angle_r	hip_flexion_l	hip_adduction_l	hip_rotation_l	knee_angle_l	knee_angle_l_beta	ankle_angle_l	subtalar_angle_l	mtp_angle_l	lumbar_extension	lumbar_bending	lumbar_rotation	arm_flex_r	arm_add_r	arm_rot_r	elbow_flex_r	pro_sup_r	wrist_flex_r	wrist_dev_r	arm_flex_l	arm_add_l	arm_rot_l	elbow_flex_l	pro_sup_l	wrist_flex_l	wrist_dev_l
     36.60000000	     -8.03559572	     -6.02756272	     -2.46804607	      1.05472468	      0.91504351	      0.47717893	     33.09135159	      1.02234925	    -13.56585905	     13.97099054	     13.97099054	      2.26700179	      2.81081538	     10.27510393	      1.64777209	     -8.83955793	    -10.79655752	     14.81096586	     14.81096586	     19.99192412	     -7.91068805	     -0.89604797	    -13.42578007	      7.87600893	      0.66494472	    -12.50803014	    -11.61465458	     -6.61711668	     25.93062311	     46.60786806	      0.00000000	      0.00000000	     10.53675360	    -22.81027042	    -15.05622067	    118.02262803	     48.80643278	      0.00000000	      0.00000000
     36.61185714	     -8.09209018	     -5.83609907	     -2.24179326	      1.05750015	      0.91196639	      0.47907928	     32.89406213	      1.03375689	    -13.93402548	     13.75966606	     13.75966606	      2.31850248	      2.69972580	     10.27757304	      0.93275397	     -8.77735156	    -10.72301621	     14.81509059	     14.81509059	     20.59936419	     -7.70216684	     -1.19639133	    -12.92612489	      7.74080145	      0.28628351	    -13.53346477	    -11.46959125	     -6.66358560	     25.74338100	     46.60863896	      0.00000000	      0.00000000	     10.73189360	    -22.83491347	    -15.08165381	    118.29073072	     48.81701122	      0.00000000	      0.00000000
     36.62371429	     -8.11186703	     -5.77504417	     -2.06351187	      1.06034817	      0.90914856	      0.48126792	     32.63003093	      1.15790409	    -14.37510486	     13.87763546	     13.87763546	      2.13180565	      2.58274772	     10.00457251	      0.16179484	     -8.90797287	    -10.82717719	     14.83267116	     14.83267116	     21.18318546	     -7.21505288	     -1.52216093	    -12.56356746	      7.69136347	      0.24725348	    -14.52063680	    -11.29736275	     -6.74629593	     25.72236411	     46.60459558	      0.00000000	      0.00000000	     10.94449248	    -22.66181096	    -15.04986455	    118.77906256	     48.83005399	      0.00000000	      0.00000000
     36.63557143	     -8.03281797	     -5.81833024	     -2.00013569	      1.06320689	      0.90625593	      0.48399522	     32.29177688	      1.44557538	    -14.51596651	     14.24842110	     14.24842110	      0.47028666	      1.94989161	      5.11500348	     -0.35314708	     -9.53921915	    -12.47196381	     15.75139477	     15.75139477	     22.38245704	     -4.53099533	     -2.26796372	    -12.37498578	      7.74913174	      0.96090694	    -16.37724804	    -11.07970315	     -7.72224889	     28.07991633	     46.54235253	      0.00000000	      0.00000000	     11.65615212	    -22.13052702	    -14.09831351	    119.13237194	     48.82109004	      0.00000000	      0.00000000
     36.64742857	     -8.05022177	     -5.70545073	     -1.91960587	      1.06579244	      0.90370109	      0.48659039	     32.49205327	      1.42028881	    -14.41625429	     15.71762218	     15.71762218	      0.19480051	      1.10347468	      3.83360551	     -0.79018769	     -9.65752935	    -12.25796904	     16.38411442	     16.38411442	     22.79607789	     -4.89282793	     -2.31407328	    -12.02311016	      7.60109000	      1.01924360	    -16.77463953	    -10.97561160	     -7.82516265	     28.01746822	     46.54527634	      0.00000000	      0.00000000	     11.68505605	    -21.70549425	    -14.03223265	    119.08469651	     48.82584650	      0.00000000	      0.00000000
     36.65928571	     -8.05601404	     -5.69589839	     -1.85701494	      1.06812403	      0.90144627	      0.48934024	     32.71288143	      1.48437156	    -14.23243829	     17.34835212	     17.34835212	     -0.09085698	      0.13601544	      2.39997954	     -0.97833773	     -9.98791139	    -12.19454664	     17.50114568	     17.50114568	     23.18460107	     -5.16106171	     -2.59371593	    -11.82974136	      7.63555770	      1.12961522	    -16.88167526	    -10.94339448	     -7.89321771	     27.97722712	     46.54799438	      0.00000000	      0.00000000	     11.51304853	    -21.23200775	    -13.94060354	    118.88710834	     48.82342858	      0.00000000	      0.00000000
     36.67114286	     -7.98897830	     -5.73778406	     -1.84721685	      1.07038277	      0.89957683	      0.49245196	     32.63580101	      1.75838864	    -13.64681025	     18.48443058	     18.48443058	     -1.91944456	     -1.83305918	     -3.42455231	     -0.99346148	    -10.49934011	    -12.30762353	     19.12084260	     19.12084260	     23.39710535	     -5.28563460	     -3.16626890	    -11.71868415	      7.64851167	      1.42899553	    -16.70166352	    -10.75646446	     -8.18187524	     27.84529778	     46.55168477	      0.00000000	      0.00000000	     11.33322702	    -20.65385486	    -13.62584074	    118.28847964	     48.86281066	      0.00000000	      0.00000000
     36.68300000	     -7.92765787	     -5.81425766	     -1.85812410	      1.07229984	      0.89833616	      0.49561828	     32.86483985	      1.91511213	    -13.33780702	     20.37821882	     20.37821882	     -1.59035964	     -2.73635949	     -3.89447644	     -0.73659400	    -11.03501021	    -12.06739767	     21.14385442	     21.14385442	     23.28149518	     -6.10394946	     -3.61643334	    -11.69041731	      7.69319629	      1.56396100	    -16.18268021	    -10.78274750	     -8.13673439	     27.86231759	     46.54968656	      0.00000000	      0.00000000	     10.81735638	    -20.06240372	    -13.56422638	    117.73631143	     48.85160491	      0.00000000	      0.00000000
